<svg id="Capa_1" enable-background="new 0 0 512 512" height="512" viewBox="0 0 512 512" width="512" xmlns="http://www.w3.org/2000/svg"><g><g><g><g><g><path d="m172.39 237.975v-87.198c-48.197 0-87.269 39.04-87.269 87.198s39.072 87.198 87.269 87.198 87.269-39.04 87.269-87.198z" fill="#a4fcc4"/></g><g><path d="m202.505 120.68v87.198h87.269c0-48.158-39.071-87.198-87.269-87.198z" fill="#a4fcc4"/></g></g></g></g><g fill="#020288"><path d="m334.752 161.745h82.127c5.522 0 10-4.478 10-10s-4.478-10-10-10h-82.127c-5.522 0-10 4.478-10 10s4.477 10 10 10z"/><path d="m334.752 203.489h82.127c5.522 0 10-4.478 10-10s-4.478-10-10-10h-82.127c-5.522 0-10 4.478-10 10s4.477 10 10 10z"/><path d="m304.624 287.532h112.255c5.522 0 10-4.478 10-10s-4.478-10-10-10h-112.255c-5.522 0-10 4.478-10 10s4.478 10 10 10z"/><path d="m502 367.203h-25.798v-282.049c0-16.862-13.718-30.58-30.58-30.58h-379.244c-16.862 0-30.58 13.718-30.58 30.58v282.049h-25.798c-5.523 0-10 4.478-10 10v48.453c0 17.518 14.252 31.77 31.77 31.77h448.46c17.518 0 31.77-14.252 31.77-31.77v-48.453c0-5.522-4.478-10-10-10zm-446.202-282.049c0-5.834 4.746-10.58 10.58-10.58h379.244c5.834 0 10.58 4.746 10.58 10.58v282.049h-116.535c-17.309 0-31.929 11.735-36.319 27.667h-94.695c-4.392-15.932-19.011-27.667-36.32-27.667h-116.535zm436.202 340.502c0 6.49-5.28 11.77-11.77 11.77h-448.46c-6.49 0-11.77-5.279-11.77-11.77v-38.453h152.333c9.742 0 17.667 7.926 17.667 17.667 0 5.522 4.477 10 10 10h112c5.522 0 10-4.478 10-10 0-9.741 7.926-17.667 17.667-17.667h152.333z"/></g></g></svg>