<svg width="228" height="387" viewBox="0 0 228 387" fill="none" xmlns="http://www.w3.org/2000/svg">
<path d="M279.983 326.041L315.888 293.774C305.137 303.534 292.911 311.532 279.664 317.473C264.826 324.08 248.968 328.102 232.775 329.365C208.256 330.883 183.708 326.871 160.945 317.626C138.182 308.38 117.785 294.137 101.261 275.948C84.7369 257.759 72.508 236.089 65.4774 212.539C58.4467 188.989 56.794 164.161 60.6413 139.888C63.4538 123.89 68.9793 108.49 76.9791 94.3554C84.1564 81.7407 93.2818 70.3406 104.018 60.5771L68.112 92.8434C8.03312 147.409 6.73755 243.915 65.217 308.374C123.696 372.834 219.904 380.606 279.983 326.041Z" fill="url(#paint0_linear)"/>
<path d="M255.475 135.728C272.198 153.818 284.548 175.505 291.574 199.121C298.6 222.736 300.115 247.649 296.001 271.94L296.848 272.9C346.161 228.051 347.217 148.917 299.223 96.0182C251.229 43.1197 172.319 36.5636 122.991 81.3241L123.838 82.2845C148.403 80.5221 173.046 84.4239 195.868 93.6895C218.69 102.955 239.083 117.337 255.475 135.728Z" fill="url(#paint1_linear)"/>
<path d="M232.731 329.373C248.924 328.11 264.781 324.088 279.619 317.48C292.867 311.54 305.093 303.541 315.844 293.781C375.923 239.216 377.219 142.71 318.739 78.2503C260.259 13.791 164.104 5.78082 104.025 60.3463C93.2896 70.1098 84.1641 81.51 76.9868 94.1246C68.9597 108.33 63.4309 123.81 60.6413 139.888C56.7633 164.174 58.3925 189.021 65.4083 212.594C72.424 236.166 84.6468 257.859 101.173 276.07C117.699 294.28 138.105 308.542 160.882 317.799C183.659 327.056 208.224 331.073 232.761 329.551L232.731 329.373ZM122.15 82.3344L124.024 82.0241L123.177 81.0638C172.491 36.214 251.371 42.8668 299.41 95.7579C347.448 148.649 346.355 227.835 297.034 272.64L296.188 271.68C296.284 272.26 295.986 272.952 295.903 273.561C283.983 283.995 270.06 291.884 254.985 296.746C239.91 301.608 224.001 303.34 208.233 301.837C174.674 298.533 143.537 282.871 120.869 257.892C98.2008 232.913 85.6179 200.4 85.5635 166.665C85.621 150.86 88.8945 135.232 95.1846 120.733C101.475 106.235 110.65 93.17 122.15 82.3344Z" fill="url(#paint2_linear)"/>
<defs>
<linearGradient id="paint0_linear" x1="215.072" y1="382.396" x2="52.8044" y2="105.555" gradientUnits="userSpaceOnUse">
<stop stop-color="#12A1FF"/>
<stop offset="0.09" stop-color="#1DA6FF"/>
<stop offset="0.26" stop-color="#3AB3FF"/>
<stop offset="0.48" stop-color="#6AC9FF"/>
<stop offset="0.73" stop-color="#ABE7FF"/>
<stop offset="0.74" stop-color="#ADE8FF"/>
<stop offset="0.8" stop-color="#A2E2FF"/>
<stop offset="0.9" stop-color="#85D3FF"/>
<stop offset="1" stop-color="#5FBFFF"/>
</linearGradient>
<linearGradient id="paint1_linear" x1="191.87" y1="239.807" x2="240.391" y2="51.0732" gradientUnits="userSpaceOnUse">
<stop stop-color="#12A1FF"/>
<stop offset="0.11" stop-color="#1DA5FF"/>
<stop offset="0.29" stop-color="#3AB1FF"/>
<stop offset="0.48" stop-color="#5FBFFF"/>
<stop offset="1" stop-color="#5FBFFF"/>
</linearGradient>
<linearGradient id="paint2_linear" x1="105.936" y1="84.7332" x2="333.498" y2="302.041" gradientUnits="userSpaceOnUse">
<stop stop-color="#12A1FF"/>
<stop offset="0.24" stop-color="#0F96FF"/>
<stop offset="0.65" stop-color="#0879FF"/>
<stop offset="1" stop-color="#005CFF"/>
</linearGradient>
</defs>
</svg>
