<svg width="208" height="301" viewBox="0 0 208 301" fill="none" xmlns="http://www.w3.org/2000/svg">
<g opacity="0.8">
<path d="M172.877 184.382C173.817 182.201 174.711 180.027 175.553 177.838L175.91 176.935L176.471 175.371L177.133 173.549C177.529 172.447 177.897 171.325 178.266 170.203L178.795 168.596C179.279 167.053 179.738 165.506 180.172 163.955L180.133 163.72C180.584 162.078 180.992 160.467 181.373 158.836L181.722 157.308C181.97 156.181 182.217 155.055 182.441 153.933L182.795 152.138C182.991 151.093 183.172 150.05 183.337 149.01L183.616 147.203C183.774 146.116 183.908 145.033 184.042 143.95L184.235 142.351C184.4 140.924 184.534 139.504 184.637 138.088L184.697 137.572C184.819 135.984 184.895 134.404 184.947 132.828C184.87 132.358 184.96 131.885 184.976 131.4C185.012 130.309 185.021 129.198 185.01 128.115C184.917 127.552 184.992 126.985 184.993 126.406C184.97 125.397 184.94 124.389 184.902 123.383C184.808 122.819 184.856 122.233 184.809 121.662C184.642 120.652 184.663 119.612 184.589 118.587C184.504 118.071 184.422 117.578 184.454 117.042C184.32 115.746 184.171 114.461 184.008 113.185C183.973 112.974 183.934 112.74 183.899 112.528C183.671 111.151 183.445 109.782 183.219 108.421C183.219 108.421 183.192 108.257 183.18 108.186C182.826 106.05 182.336 103.961 181.822 101.876C181.74 101.383 181.655 100.867 181.432 100.397C180.918 98.4569 180.384 96.5438 179.761 94.6698C179.737 94.5289 179.71 94.3646 179.687 94.2238L179.663 94.083C179.115 92.4215 178.522 90.7834 177.885 89.1687C177.808 88.6993 177.523 88.2883 177.331 87.8618C176.848 86.688 176.38 85.608 175.841 84.395C175.806 84.1838 175.767 83.9491 175.568 83.765C175.369 83.581 175.139 82.9198 174.924 82.4971C174.53 81.7184 174.156 80.9123 173.742 80.161C173.328 79.4096 173.047 78.8774 172.704 78.259C172.36 77.6407 171.849 76.7367 171.424 76.0596C171.256 75.7739 171.112 75.4844 170.944 75.1987C170.776 74.913 170.464 74.4824 170.233 74.1106C170.003 73.7388 169.449 72.8661 169.035 72.2594C168.621 71.6527 168.145 70.9599 167.7 70.3102C167.254 69.6605 166.852 69.1242 166.415 68.5215L165.853 67.7464C165.544 67.3394 165.216 66.9596 164.912 66.576L163.666 65.022C163.123 64.3643 162.584 63.7301 162.022 63.0998L160.722 61.6513L160.304 61.1659C159.523 60.3307 158.719 59.5072 157.894 58.6954L140.591 41.5461C141.568 42.4936 142.505 43.4958 143.489 44.4903L144.766 45.9427C145.329 46.573 145.895 47.2268 146.414 47.8883L147.656 49.4189C148.172 50.057 148.667 50.7224 149.159 51.3644C149.651 52.0063 150.03 52.5464 150.444 53.1531C150.858 53.7598 151.358 54.4487 151.779 55.1023C152.201 55.7559 152.583 56.3195 152.978 56.9535C153.372 57.5875 153.793 58.2411 154.168 58.9025C154.543 59.5639 155.042 60.3975 155.448 61.1019C155.854 61.8064 156.143 62.3855 156.49 63.0273C156.838 63.6691 157.279 64.5848 157.673 65.3635C158.067 66.1422 158.293 66.6353 158.59 67.2614C159.116 68.404 159.588 69.5074 160.08 70.7282C160.157 71.1976 160.466 71.6047 160.634 72.0351C161.271 73.6498 161.863 75.2879 162.412 76.9493C162.443 77.1371 162.478 77.3483 162.509 77.5361C163.133 79.4102 163.666 81.3233 164.181 83.2637C164.262 83.7566 164.348 84.273 164.57 84.7425C165.084 86.8277 165.551 88.9206 165.928 91.0526C166.166 92.4843 166.407 93.9395 166.648 95.3946C166.686 95.6293 166.725 95.864 166.76 96.0753C166.97 97.3427 167.18 98.6101 167.202 99.9086C167.288 100.425 167.373 100.941 167.338 101.454C167.505 102.463 167.504 103.476 167.554 104.505C167.647 105.068 167.623 105.651 167.646 106.225C167.682 107.216 167.711 108.216 167.733 109.225C167.826 109.789 167.755 110.379 167.755 110.958C167.766 112.041 167.729 113.133 167.72 114.243C167.798 114.713 167.712 115.209 167.692 115.671C167.639 117.247 167.564 118.827 167.441 120.415L167.401 120.903C167.285 122.337 167.152 123.766 167.003 125.19L166.809 126.789C166.675 127.872 166.542 128.955 166.361 130.046L166.081 131.853C165.916 132.893 165.735 133.936 165.539 134.981L165.185 136.776C164.961 137.898 164.714 139.024 164.463 140.127L164.117 141.679C163.737 143.31 163.329 144.921 162.877 146.563L162.803 146.841C162.382 148.373 161.922 149.912 161.422 151.458L160.913 153.037C160.544 154.16 160.172 155.258 159.78 156.384L159.117 158.206L158.192 160.771C157.35 162.96 156.503 165.126 155.516 167.315L155.34 167.706C154.321 169.997 153.228 172.275 152.112 174.558L151.058 176.638C150.476 177.779 149.862 178.926 149.217 180.078L147.976 182.333C147.326 183.502 146.648 184.651 145.948 185.804L144.702 187.891C143.469 189.904 142.208 191.897 140.873 193.878C139.538 195.86 138.54 197.255 137.346 198.924L135.972 200.815C135.08 202.024 134.175 203.211 133.26 204.375L131.905 206.095C130.694 207.613 129.456 209.113 128.191 210.592L127.788 211.069C126.449 212.689 125.018 214.285 123.495 215.855L122.223 217.199C121.156 218.325 120.078 219.435 118.99 220.532L117.5 222.009C116.38 223.11 115.242 224.191 114.084 225.251L112.808 226.427C111.259 227.841 109.68 229.228 108.074 230.587L107.033 231.435C105.75 232.515 104.447 233.575 103.124 234.614L101.372 235.965L98.0932 238.438L95.9454 240.023L92.8315 242.179L90.6682 243.67L87.7696 245.525L84.7966 247.368L81.9607 249.019L78.9411 250.725L76.4612 252.052C74.821 252.918 73.1665 253.747 71.4978 254.538L69.4013 255.56C67.168 256.629 64.7628 257.679 62.4162 258.646L61.6927 258.935C59.8624 259.672 58.0282 260.386 56.2097 261.049L54.0431 261.793C52.6744 262.261 51.3056 262.729 49.9565 263.169L47.4264 263.902C46.1868 264.276 44.9198 264.631 43.6762 264.981L40.9898 265.643L37.3923 266.48L34.6006 266.943L31.0581 267.529L28.2429 267.995L24.7942 268.567L21.9518 268.869L18.5307 269.17L15.6884 269.327L12.2832 269.433L9.4645 269.442L6.10246 269.372L3.31125 269.255L-0.0311009 269.013L-2.77526 268.744L-6.10178 268.306L-8.795 267.908C-9.9129 267.707 -11.0073 267.503 -12.1057 267.275L-14.6111 266.701C-15.7368 266.453 -16.8272 266.128 -17.9333 265.853L-20.4542 265.185C-21.5955 264.844 -22.7445 264.455 -23.87 264.063L-26.1407 263.305C-27.3991 262.839 -28.7083 262.356 -29.8571 261.823L-31.6939 261.066C-33.5305 260.261 -35.3359 259.403 -37.1099 258.491C-45.0819 254.389 -52.3805 249.092 -58.7532 242.784L-41.4507 259.933C-35.078 266.241 -27.7793 271.538 -19.8074 275.64C-18.0464 276.57 -16.241 277.429 -14.3913 278.216L-12.5546 278.972C-11.3119 279.49 -9.97925 279.969 -8.83816 280.455L-6.5675 281.212C-5.44196 281.604 -4.29292 281.993 -3.15169 282.334L-0.630744 283.002C0.479247 283.3 1.58923 283.599 2.69144 283.85L5.19685 284.424C6.29518 284.652 7.39352 284.88 8.50753 285.057L11.2007 285.455L14.5273 285.893L17.2714 286.162L20.6138 286.404L23.405 286.521L26.767 286.591L29.5857 286.582L33.0771 286.269L35.896 286.116L39.317 285.815L42.1595 285.513L45.6081 284.942L48.4234 284.475L51.9659 283.889L54.7341 283.43L58.3551 282.589L61.0415 281.927C62.2889 281.6 63.552 281.222 64.8151 280.844L67.3452 280.112C68.7217 279.691 70.0631 279.203 71.4318 278.735L73.5984 277.991C75.4638 277.32 77.3215 276.602 79.1948 275.834L79.8049 275.588C82.0577 274.636 84.4629 273.587 86.7901 272.502L88.8865 271.48C90.5371 270.676 92.1915 269.847 93.8499 268.994L95.1172 268.35L96.3298 267.667L99.3495 265.961L102.185 264.31L105.158 262.467L106.864 261.413L108.057 260.612L110.22 259.121L113.334 256.965L115.482 255.38L116.71 254.501L118.858 252.915L120.587 251.568C121.91 250.529 123.201 249.447 124.515 248.361L125.533 247.518L125.724 247.365C127.261 246.066 128.775 244.73 130.267 243.358L131.539 242.158L133.855 239.99L134.931 238.92L136.422 237.443C137.51 236.346 138.581 235.245 139.635 234.138L140.907 232.794L141.462 232.219C142.728 230.836 143.974 229.432 145.2 228.007L145.603 227.531C146.632 226.323 147.611 225.1 148.683 223.861L149.321 223.056L150.676 221.337C151.589 220.157 152.493 218.97 153.388 217.777L154.766 215.909L155.67 214.674C156.555 213.418 157.429 212.148 158.293 210.864C159.628 208.882 160.912 206.885 162.122 204.876L162.506 204.282L163.391 202.785C164.092 201.632 164.765 200.459 165.419 199.314L166.68 197.032C167.297 195.901 167.911 194.762 168.525 193.615L169.206 192.345L169.602 191.532C170.742 189.245 171.835 186.966 172.83 184.679L172.877 184.382Z" fill="url(#paint0_linear)"/>
<path d="M-58.9921 90.4201C-15.8299 26.1927 63.9342 -2.74042 119.183 25.8002C174.431 54.3408 184.212 129.55 141.026 193.781C97.8401 258.012 18.076 286.945 -37.1489 258.401C-92.3738 229.856 -102.158 154.624 -58.9921 90.4201ZM90.865 167.87C112.409 135.823 107.526 98.3378 79.9823 84.1145C52.4382 69.8912 12.6657 84.2914 -8.87824 116.339C-30.4222 148.386 -25.5201 185.844 2.02792 200.09C29.5759 214.337 69.3172 199.894 90.8416 167.874" fill="url(#paint1_linear)"/>
</g>
<defs>
<linearGradient id="paint0_linear" x1="-67.5033" y1="189.951" x2="189.973" y2="147.308" gradientUnits="userSpaceOnUse">
<stop stop-color="#9024E3"/>
<stop offset="0.29" stop-color="#B84AFF"/>
<stop offset="1" stop-color="#691EC1"/>
</linearGradient>
<linearGradient id="paint1_linear" x1="-49.6165" y1="77.1718" x2="131.727" y2="206.921" gradientUnits="userSpaceOnUse">
<stop offset="0.18" stop-color="#C263FF"/>
<stop offset="1" stop-color="#8629D5"/>
</linearGradient>
</defs>
</svg>
