<svg width="120" height="153" viewBox="0 0 120 153" fill="none" xmlns="http://www.w3.org/2000/svg">
<g opacity="0.6">
<path d="M138.24 61.6125C133.104 27.5849 101.367 4.16197 67.3541 9.29593C33.3415 14.4299 9.93288 46.1766 15.0695 80.2042C20.2062 114.232 51.943 137.655 85.9556 132.521C119.968 127.387 143.377 95.6401 138.24 61.6125Z" fill="url(#paint0_linear)"/>
<path d="M126.859 113.948C147.941 92.8911 151.239 62.0008 134.225 44.9525C117.211 27.9041 86.3284 31.1537 65.2466 52.2105C44.1647 73.2673 40.867 104.158 57.8808 121.206C74.8946 138.254 105.777 135.005 126.859 113.948Z" fill="url(#paint1_radial)"/>
<path d="M83.6108 139.362C118.294 133.618 141.752 100.833 136.005 66.134C130.258 31.4352 97.4832 7.96301 62.7998 13.7073C28.1165 19.4515 4.6587 52.237 10.4055 86.9357C16.1523 121.634 48.9274 145.107 83.6108 139.362Z" fill="url(#paint2_radial)"/>
</g>
<defs>
<linearGradient id="paint0_linear" x1="-19660.8" y1="17992.7" x2="-26813.9" y2="12827.9" gradientUnits="userSpaceOnUse">
<stop stop-color="#D18E00"/>
<stop offset="1" stop-color="#FFC100"/>
</linearGradient>
<radialGradient id="paint1_radial" cx="0" cy="0" r="1" gradientUnits="userSpaceOnUse" gradientTransform="translate(94.9213 81.8955) rotate(45.058) scale(43.7069 53.9514)">
<stop stop-color="#D18E00" stop-opacity="0.97"/>
<stop offset="0.05" stop-color="#D18E00" stop-opacity="0.91"/>
<stop offset="0.3" stop-color="#D18E00" stop-opacity="0.59"/>
<stop offset="0.54" stop-color="#D18E00" stop-opacity="0.34"/>
<stop offset="0.74" stop-color="#D18E00" stop-opacity="0.15"/>
<stop offset="0.9" stop-color="#D18E00" stop-opacity="0.04"/>
<stop offset="1" stop-color="#D18E00" stop-opacity="0"/>
</radialGradient>
<radialGradient id="paint2_radial" cx="0" cy="0" r="1" gradientUnits="userSpaceOnUse" gradientTransform="translate(73.2053 76.5348) rotate(-9.40395) scale(63.6553 63.6834)">
<stop stop-color="#FFE080"/>
<stop offset="1" stop-color="#FFE080" stop-opacity="0"/>
</radialGradient>
</defs>
</svg>
