<svg width="37" height="36" viewBox="0 0 37 36" fill="none" xmlns="http://www.w3.org/2000/svg">
<path d="M37 0H0V36H37V0Z" fill="#DEE1E6"/>
<path d="M30.0152 10.3562H22.8047V12.1013H30.0152V10.3562Z" fill="white"/>
<path d="M32.885 20.1641C32.885 20.4789 32.8721 20.7819 32.8463 21.0716H23.5939H23.5724C23.4864 23.0611 24.9786 24.245 26.6754 24.245C27.8779 24.245 28.9348 23.6245 29.5438 22.5725H32.5794C31.7464 25.5302 29.2991 26.7609 26.41 26.7609C22.6254 26.7609 19.9349 23.8074 19.9349 20.1642C19.9349 16.521 22.8341 13.5675 26.41 13.5675C29.9858 13.5675 32.885 16.5209 32.885 20.1641ZM23.5724 18.8693H29.2762C29.0496 17.2302 27.8593 16.1852 26.4243 16.1852C24.9894 16.1851 23.7991 17.2301 23.5724 18.8693Z" fill="white"/>
<path d="M18.8228 20.4433C19.056 22.9738 18.5897 24.5445 15.9351 25.8185C14.9414 26.2953 13.6959 26.4447 12.5271 26.4447H4.11494V9.23938C4.11494 9.23938 12.2222 9.23938 13.3702 9.23938C14.5181 9.23938 18.0637 9.90253 18.0839 13.2184C18.0975 15.5109 16.7637 16.5586 15.6495 17.0606C15.6495 17.0605 18.5897 17.9128 18.8228 20.4433ZM15.034 21.1714C15.034 18.7568 12.2316 18.8196 12.2316 18.8196H8.00719V23.5231H12.2316C12.2316 23.5232 15.034 23.586 15.034 21.1714ZM14.3387 14.1782C14.3387 12.1538 11.9891 12.2062 11.9891 12.2062H8.00719V16.1502H11.9891C11.9891 16.1502 14.3387 16.2025 14.3387 14.1782Z" fill="white"/>
</svg>
