<svg id="Capa_1" enable-background="new 0 0 512 512" height="512" viewBox="0 0 512 512" width="512" xmlns="http://www.w3.org/2000/svg" xmlns:xlink="http://www.w3.org/1999/xlink"><linearGradient id="SVGID_1_" gradientUnits="userSpaceOnUse" x1="256" x2="256" y1="512" y2="0"><stop offset="0" stop-color="#ffedad"/><stop offset="1" stop-color="#ffffe5"/></linearGradient><linearGradient id="SVGID_2_" gradientUnits="userSpaceOnUse" x1="256" x2="256" y1="102.072" y2="422.9"><stop offset="0" stop-color="#fd5900"/><stop offset="1" stop-color="#feba00"/></linearGradient><g><circle cx="256" cy="256" fill="url(#SVGID_1_)" r="256"/><g fill="url(#SVGID_2_)"><path d="m263.8 202.176-7.8-15.792-7.8 15.792c-1.309 2.653-3.838 4.497-6.772 4.919l-17.426 2.53 12.613 12.297c2.117 2.064 3.083 5.042 2.582 7.958l-2.969 17.365 15.582-8.195c1.318-.694 2.749-1.036 4.19-1.036s2.872.343 4.19 1.036l15.582 8.195-2.969-17.365c-.501-2.916.466-5.894 2.582-7.958l12.613-12.297-17.426-2.53c-2.934-.422-5.464-2.267-6.772-4.919z"/><path d="m372.924 220.023c0-64.47-52.454-117.523-116.924-117.523s-116.924 53.054-116.924 117.523 52.454 116.924 116.924 116.924 116.924-52.454 116.924-116.924zm-59.323-10.241-22.275 21.721 5.252 30.663c.58 3.373-.808 6.781-3.575 8.801-2.793 2.012-6.454 2.268-9.477.676l-27.526-14.475-27.527 14.475c-3.021 1.607-6.675 1.335-9.477-.676-2.767-2.02-4.155-5.428-3.575-8.801l5.252-30.663-22.275-21.721c-2.451-2.389-3.329-5.964-2.275-9.223 1.063-3.25 3.873-5.621 7.264-6.113l30.777-4.471 13.772-27.896c3.021-6.148 13.105-6.148 16.126 0l13.772 27.896 30.777 4.471c3.39.492 6.201 2.863 7.264 6.113 1.055 3.259.177 6.834-2.274 9.223z"/><path d="m193.041 339.255v61.251c0 3.32 1.827 6.368 4.752 7.931 2.925 1.555 6.473 1.379 9.231-.448l48.976-32.648 48.976 32.648c2.789 1.859 6.347 1.995 9.231.448 2.925-1.563 4.752-4.611 4.752-7.931v-61.251c-18.813 9.973-40.222 15.68-62.959 15.68s-44.146-5.707-62.959-15.68z"/></g></g></svg>